<?xml version="1.0" encoding="iso-8859-1"?>
<!-- Generator: Adobe Illustrator 19.0.0, SVG Export Plug-In . SVG Version: 6.00 Build 0)  -->
<svg version="1.1" id="Layer_1" xmlns="http://www.w3.org/2000/svg" xmlns:xlink="http://www.w3.org/1999/xlink" x="0px" y="0px"
	 viewBox="0 0 511.999 511.999" style="enable-background:new 0 0 511.999 511.999;" xml:space="preserve">
<g>
	<g>
		<path d="M198.265,238.797c-26.631,0-48.297,21.666-48.297,48.297c0,26.631,21.666,48.298,48.297,48.298
			s48.297-21.666,48.297-48.298C246.563,260.463,224.896,238.797,198.265,238.797z M198.265,318.738
			c-17.448,0-31.643-14.195-31.643-31.643c0-17.448,14.195-31.643,31.643-31.643s31.643,14.195,31.643,31.643
			C229.908,304.543,215.713,318.738,198.265,318.738z"/>
	</g>
</g>
<g>
	<g>
		<path d="M313.735,238.797c-26.631,0-48.297,21.666-48.297,48.297c0,26.631,21.666,48.298,48.297,48.298
			s48.297-21.666,48.297-48.298C362.032,260.463,340.366,238.797,313.735,238.797z M313.735,318.738
			c-17.448,0-31.643-14.195-31.643-31.643c0-17.448,14.195-31.643,31.643-31.643s31.643,14.195,31.643,31.643
			C345.378,304.543,331.183,318.738,313.735,318.738z"/>
	</g>
</g>
<g>
	<g>
		<path d="M469.175,404.38c-6.5,0-12.729,1.762-18.142,5.061l-71.723-71.732c17.357-24.856,27.134-54.805,27.134-86.142
			c0-29.716-8.662-57.446-23.592-80.801l68.182-68.19c5.413,3.299,11.641,5.061,18.142,5.061c9.344,0,18.128-3.641,24.729-10.249
			c13.635-13.637,13.635-35.825,0-49.461c-7.539-7.539-17.691-10.903-27.571-10.111c0.798-9.877-2.573-20.031-10.111-27.571
			C449.617,3.636,440.835,0,431.492,0c-9.343,0-18.125,3.636-24.731,10.241c-11.607,11.608-13.335,29.411-5.18,42.863
			l-69.011,69.011c-22.446-13.327-48.627-20.993-76.571-20.993c-27.342,0-53.51,7.208-76.616,20.948l-68.966-68.965
			c8.155-13.451,6.427-31.255-5.18-42.863C98.633,3.636,89.85,0,80.507,0c-9.342,0-18.124,3.636-24.729,10.241
			c-7.539,7.54-10.91,17.694-10.111,27.571c-9.878-0.788-20.031,2.573-27.571,10.111C4.459,61.56,4.459,83.748,18.093,97.381
			c6.604,6.612,15.387,10.252,24.732,10.252c6.5,0,12.729-1.762,18.142-5.061l68.179,68.189
			c-7.622,11.933-13.583,24.909-17.558,38.495c-1.291,4.415,1.24,9.039,5.655,10.33c4.42,1.296,9.04-1.241,10.33-5.655
			c16.561-56.616,69.372-96.156,128.427-96.156c73.772,0,133.79,60.018,133.79,133.79c0,47.164-24.895,90.797-65.255,114.913
			c-0.229,0.118-2.702,1.582-3.737,2.156c-2.646,1.468-4.287,4.256-4.287,7.282v53.85h-12.213v-22.761
			c0-4.6-3.727-8.327-8.327-8.327c-4.6,0-8.327,3.727-8.327,8.327v22.761h-23.316v-22.761c0-4.6-3.727-8.327-8.327-8.327
			c-4.6,0-8.327,3.727-8.327,8.327v22.761h-23.316v-22.761c0-4.6-3.727-8.327-8.327-8.327s-8.327,3.727-8.327,8.327v22.761h-12.213
			v-53.85c0-3.027-1.642-5.813-4.287-7.282c-1.035-0.574-3.508-2.04-3.736-2.156c-40.36-24.115-65.255-67.75-65.255-114.912
			c0-4.6-3.727-8.327-8.327-8.327s-8.327,3.727-8.327,8.327c0,31.337,9.776,61.286,27.134,86.142l-71.725,71.733
			c-5.413-3.299-11.641-5.061-18.142-5.061c-9.344,0-18.128,3.641-24.729,10.249c-13.628,13.629-13.63,35.816,0,49.461
			c7.539,7.539,17.689,10.906,27.571,10.111c-0.798,9.877,2.573,20.031,10.111,27.571c6.819,6.818,15.775,10.227,24.729,10.227
			c8.956,0,17.912-3.409,24.731-10.227c11.607-11.608,13.335-29.411,5.18-42.863l68.417-68.417v47.601
			c0,4.6,3.727,8.327,8.327,8.327h137.676c4.6,0,8.327-3.727,8.327-8.327v-47.601l68.417,68.417
			c-8.155,13.451-6.427,31.255,5.18,42.863c6.819,6.818,15.775,10.227,24.73,10.227c8.954,0,17.911-3.409,24.729-10.227
			c7.539-7.54,10.91-17.695,10.111-27.571c9.883,0.798,20.033-2.574,27.573-10.115c13.628-13.642,13.625-35.829,0-49.454
			C487.303,408.021,478.519,404.38,469.175,404.38z M164.992,131.758c-9.667,7.357-18.392,15.887-25.993,25.305L67.554,85.608
			c-1.561-1.562-3.68-2.439-5.889-2.439c-2.195,0-4.34,0.889-5.891,2.442c-3.459,3.462-8.058,5.369-12.95,5.369
			c-4.892,0-9.492-1.907-12.953-5.373c-7.144-7.142-7.144-18.764,0-25.906c7.141-7.144,18.764-7.144,25.905,0
			c2.964,2.962,7.832,3.233,11.101,0.607c3.809-3.061,4.131-8.927,0.676-12.384c-7.144-7.143-7.144-18.763,0-25.905
			c7.141-7.141,18.765-7.144,25.906,0c7.144,7.142,7.144,18.763,0,25.905c-3.252,3.253-3.252,8.525,0,11.777l71.836,71.837
			C165.195,131.612,165.092,131.682,164.992,131.758z M346.655,131.586l71.883-71.884c3.252-3.253,3.252-8.525,0-11.777
			c-7.144-7.143-7.144-18.763,0-25.905c7.142-7.144,18.766-7.141,25.906,0c7.144,7.142,7.144,18.763,0,25.905
			c-3.455,3.457-3.133,9.323,0.676,12.384c3.269,2.627,8.136,2.356,11.101-0.607c7.141-7.144,18.764-7.144,25.905,0
			c7.144,7.142,7.144,18.764-0.002,25.91c-3.459,3.462-8.058,5.369-12.95,5.369c-4.892,0-9.492-1.907-12.95-5.369
			c-3.209-3.211-8.569-3.214-11.779-0.002l-71.465,71.475C365.272,147.558,356.43,138.989,346.655,131.586z M93.461,452.313
			c-3.252,3.253-3.252,8.525,0,11.777c7.144,7.142,7.144,18.763,0,25.905c-7.139,7.144-18.763,7.145-25.906,0
			c-7.144-7.143-7.144-18.763,0-25.905c3.455-3.457,3.133-9.323-0.676-12.384c-3.269-2.627-8.136-2.356-11.101,0.607
			c-7.141,7.144-18.762,7.144-25.903,0.003c-7.14-7.148-7.143-18.771,0-25.913c3.458-3.462,8.058-5.369,12.95-5.369
			s9.492,1.907,12.95,5.369c3.209,3.211,8.569,3.214,11.779,0.002l75.5-75.508c8.033,9.143,17.203,17.372,27.396,24.426
			L93.461,452.313z M482.128,452.313c-7.141,7.144-18.764,7.144-25.905,0c-3.253-3.251-8.525-3.251-11.777,0
			c-1.625,1.627-2.438,3.758-2.438,5.889s0.813,4.262,2.438,5.889c7.144,7.143,7.144,18.763,0,25.905
			c-7.141,7.145-18.765,7.144-25.906,0c-7.144-7.142-7.144-18.763,0-25.905c3.252-3.253,3.252-8.525,0-11.777l-76.988-76.99
			c10.192-7.055,19.362-15.283,27.396-24.426l75.5,75.508c1.561,1.562,3.68,2.439,5.889,2.439c0,0,0.001,0,0.002,0
			c2.208,0,4.327-0.879,5.889-2.442c3.458-3.462,8.058-5.369,12.95-5.369s9.492,1.907,12.953,5.373
			C489.268,433.545,489.266,445.169,482.128,452.313z"/>
	</g>
</g>
<g>
	<g>
		<path d="M370.529,226.949c-2.166-10.104-5.684-19.893-10.454-29.098c-13.844-26.704-38.137-47.58-66.649-57.278
			c-4.357-1.481-9.084,0.849-10.565,5.203c-1.481,4.355,0.848,9.084,5.203,10.565c24.484,8.326,45.342,26.249,57.228,49.174
			c4.088,7.887,7.101,16.272,8.956,24.925c0.838,3.909,4.291,6.584,8.133,6.584c0.578,0,1.167-0.061,1.754-0.188
			C368.63,235.873,371.494,231.446,370.529,226.949z"/>
	</g>
</g>
<g>
	<g>
		<path d="M266.813,134.925c-3.57-0.328-7.206-0.494-10.811-0.495c-0.001,0-0.001,0-0.002,0c-4.598,0-8.326,3.726-8.327,8.325
			c-0.001,4.599,3.725,8.328,8.325,8.329c3.099,0.001,6.225,0.144,9.293,0.426c0.259,0.023,0.516,0.034,0.771,0.034
			c4.255,0,7.886-3.245,8.283-7.565C274.765,139.4,271.393,135.346,266.813,134.925z"/>
	</g>
</g>
<g>
</g>
<g>
</g>
<g>
</g>
<g>
</g>
<g>
</g>
<g>
</g>
<g>
</g>
<g>
</g>
<g>
</g>
<g>
</g>
<g>
</g>
<g>
</g>
<g>
</g>
<g>
</g>
<g>
</g>
</svg>
